<?xml version="1.0" standalone="no"?>
<!DOCTYPE svg PUBLIC "-//W3C//DTD SVG 20010904//EN"
 "http://www.w3.org/TR/2001/REC-SVG-20010904/DTD/svg10.dtd">
<svg version="1.0" xmlns="http://www.w3.org/2000/svg"
 width="648.000000pt" height="193.000000pt" viewBox="0 0 648.000000 193.000000"
 preserveAspectRatio="xMidYMid meet">

<g transform="translate(0.000000,193.000000) scale(0.100000,-0.100000)"
fill="#000000" stroke="none">
<path d="M125 1906 c-34 -15 -92 -76 -106 -113 -5 -14 -9 -355 -9 -831 0 -767
1 -809 19 -848 21 -45 67 -85 120 -103 49 -16 6133 -16 6182 0 54 18 100 58
120 105 19 41 19 76 17 861 l-3 818 -23 33 c-13 17 -40 44 -59 60 l-36 27
-3096 2 c-2543 2 -3101 0 -3126 -11z m2070 -206 c25 -12 58 -38 73 -58 l27
-35 3 -411 c2 -297 0 -408 -8 -400 -6 6 -108 181 -226 390 -240 423 -233 405
-163 475 70 70 196 87 294 39z m-1402 -27 c13 -21 113 -192 222 -380 109 -189
199 -342 200 -340 1 1 -2 38 -6 82 -4 44 -8 214 -8 378 l-1 297 260 0 260 0
-2 -747 -3 -748 -260 0 -259 0 -208 355 c-113 195 -213 365 -220 377 -11 18
-12 -40 -10 -358 l3 -379 -191 0 c-203 0 -222 4 -267 52 -54 57 -53 43 -53
773 l0 675 260 0 260 0 23 -37z m2067 -708 l0 -745 -225 0 -225 0 0 745 0 745
225 0 225 0 0 -745z m847 738 c-3 -5 -91 -156 -196 -336 -105 -181 -191 -332
-191 -336 0 -4 83 -180 184 -390 102 -210 188 -391 191 -401 6 -20 0 -20 -242
-20 l-249 0 -168 409 c-150 367 -166 412 -155 433 6 12 93 164 191 336 l180
312 230 0 c126 0 227 -3 225 -7z m583 -4 c124 -19 230 -84 288 -177 66 -104
67 -115 67 -557 0 -390 -1 -402 -23 -465 -43 -123 -125 -203 -257 -251 -55
-21 -83 -23 -317 -27 l-258 -4 0 216 0 216 193 0 c205 0 219 3 230 49 6 26 -8
72 -26 83 -7 4 -92 8 -189 8 l-178 0 0 170 0 170 149 0 c82 0 161 4 175 10 64
24 55 111 -13 130 -20 5 -105 10 -188 10 l-153 0 0 215 0 215 218 0 c119 0
246 -5 282 -11z m1175 -361 c119 -205 220 -376 224 -380 3 -4 3 27 -1 70 -3
42 -7 213 -7 380 l-1 302 195 0 c219 0 234 -3 282 -67 l28 -36 3 -699 2 -698
-253 0 c-229 0 -255 2 -269 18 -8 9 -109 179 -224 377 l-209 360 0 -375 0
-375 -252 -3 -253 -2 0 750 0 750 259 0 260 0 216 -372z m-3386 -604 c121
-214 221 -398 221 -408 0 -58 -80 -128 -167 -146 -103 -22 -218 19 -263 93
-19 30 -20 53 -20 446 0 228 2 412 4 410 2 -2 103 -180 225 -395z"/>
</g>
</svg>
